<?xml version="1.0" standalone="no"?>
<!DOCTYPE svg PUBLIC "-//W3C//DTD SVG 20010904//EN"
 "http://www.w3.org/TR/2001/REC-SVG-20010904/DTD/svg10.dtd">
<svg version="1.0" xmlns="http://www.w3.org/2000/svg"
 width="200.000000pt" height="200.000000pt" viewBox="0 0 200.000000 200.000000"
 preserveAspectRatio="xMidYMid meet">
<metadata>
Created by potrace 1.11, written by Peter Selinger 2001-2013
</metadata>
<g transform="translate(0.000000,200.000000) scale(0.100000,-0.100000)"
fill="#000000" stroke="none">
<path d="M915 1539 c-44 -21 -63 -84 -39 -130 15 -29 69 -60 93 -52 81 25 107
80 70 149 -20 39 -80 54 -124 33z m85 -58 c16 -31 12 -49 -15 -67 -23 -15 -27
-15 -50 0 -27 18 -33 54 -13 74 19 19 66 15 78 -7z"/>
<path d="M1171 1408 c-37 -13 -61 -47 -61 -85 0 -44 14 -70 48 -86 69 -34 142
12 142 88 0 52 -77 102 -129 83z m76 -68 c26 -52 -47 -96 -81 -48 -21 29 -20
34 5 59 26 26 60 21 76 -11z"/>
<path d="M725 1405 c-5 -2 -22 -6 -37 -9 -33 -7 -61 -46 -63 -87 -2 -40 40
-88 86 -95 70 -12 128 70 94 135 -15 30 -60 61 -80 56z m37 -68 c12 -19 5 -59
-13 -70 -48 -30 -101 32 -63 74 19 21 61 19 76 -4z"/>
<path d="M986 1294 c-12 -12 -13 -20 -5 -35 14 -27 53 -22 57 8 4 30 -31 49
-52 27z"/>
<path d="M884 1285 c-10 -25 4 -45 30 -45 27 0 42 26 25 46 -15 19 -48 18 -55
-1z"/>
<path d="M1040 1214 c-19 -22 -8 -49 20 -49 33 0 42 49 11 58 -11 3 -25 -1
-31 -9z"/>
<path d="M841 1207 c-9 -11 -7 -19 8 -38 16 -20 21 -22 35 -10 23 19 16 55
-10 59 -11 2 -26 -3 -33 -11z"/>
<path d="M1171 1134 c-31 -13 -61 -62 -61 -100 0 -9 16 -32 35 -51 31 -31 40
-35 72 -30 70 12 107 79 77 139 -23 46 -74 63 -123 42z m70 -53 c20 -16 22
-23 14 -47 -9 -24 -16 -29 -45 -29 -29 0 -36 5 -44 27 -8 22 -6 32 9 48 23 25
36 25 66 1z"/>
<path d="M678 1123 c-54 -34 -63 -96 -20 -144 22 -24 36 -31 66 -31 100 0 134
131 46 177 -37 19 -58 19 -92 -2z m84 -50 c23 -21 23 -38 -2 -63 -24 -24 -43
-25 -64 -4 -49 48 15 113 66 67z"/>
<path d="M903 1133 c-21 -8 -15 -51 7 -58 27 -8 40 1 40 30 0 17 -21 40 -33
34 -1 0 -8 -3 -14 -6z"/>
<path d="M986 1124 c-8 -21 -8 -20 10 -38 19 -20 54 -5 54 23 0 31 -53 43 -64
15z"/>
<path d="M933 990 c-13 -5 -32 -24 -42 -41 -52 -85 42 -180 127 -129 38 23 54
58 46 99 -12 56 -79 93 -131 71z m71 -56 c30 -29 9 -84 -31 -84 -23 0 -53 29
-53 51 0 23 26 49 50 49 10 0 26 -7 34 -16z"/>
<path d="M200 693 c-55 -16 -100 -69 -100 -120 0 -93 115 -159 200 -113 28 15
26 34 -2 25 -13 -4 -41 -10 -64 -12 -36 -4 -45 -1 -73 28 -30 30 -33 37 -28
78 9 81 68 108 165 76 28 -9 30 10 2 25 -23 12 -77 19 -100 13z"/>
<path d="M430 683 c-70 -36 -95 -118 -54 -180 49 -76 177 -75 224 2 67 109
-55 237 -170 178z m140 -50 c12 -16 20 -41 20 -65 0 -76 -79 -121 -154 -87
-30 14 -58 69 -52 103 4 21 23 66 29 66 1 0 20 6 41 14 48 17 87 6 116 -31z"/>
<path d="M644 693 c-8 -3 -5 -17 9 -46 11 -23 35 -76 53 -117 53 -121 52 -121
161 131 8 18 9 30 3 34 -9 6 -100 -172 -100 -195 0 -30 -21 1 -59 88 -47 106
-51 111 -67 105z"/>
<path d="M919 646 c-1 -125 0 -189 5 -194 5 -5 79 -6 154 -3 12 1 22 6 22 11
0 6 -32 10 -75 10 -41 0 -75 3 -76 8 -7 45 -5 74 5 78 7 3 37 6 67 7 66 2 68
22 1 23 -83 2 -80 1 -78 39 2 19 5 38 9 41 3 3 35 6 71 5 45 0 66 4 66 12 0 8
-25 12 -85 13 l-85 0 -1 -50z"/>
<path d="M1160 573 c0 -105 2 -123 16 -123 10 0 15 8 14 23 -5 51 -2 54 42 53
36 -1 45 -6 67 -38 14 -21 34 -37 44 -38 16 0 14 6 -12 38 l-30 39 26 19 c55
42 25 142 -44 145 -15 1 -49 2 -75 3 l-48 2 0 -123z m148 81 c14 -10 22 -26
22 -44 0 -39 -32 -60 -92 -60 -27 0 -48 3 -49 8 0 4 -1 31 -2 60 l-2 52 50 0
c30 0 60 -6 73 -16z"/>
<path d="M1425 691 c-3 -2 -5 -58 -5 -123 0 -98 3 -118 15 -119 8 0 42 -1 75
-1 85 0 90 1 90 12 0 6 -32 10 -75 10 l-75 0 0 45 c0 50 -2 48 79 46 40 -2 52
1 49 11 -3 9 -24 13 -66 13 l-62 -1 0 43 0 43 63 1 c34 1 65 1 69 1 3 -1 8 4
11 11 3 9 -18 12 -80 13 -46 0 -86 -2 -88 -5z"/>
<path d="M1666 691 c-2 -3 -4 -59 -5 -124 0 -131 -9 -120 89 -118 71 1 105 16
130 56 37 60 18 140 -40 170 -31 16 -167 29 -174 16z m180 -55 c16 -18 24 -40
24 -66 0 -26 -8 -48 -24 -66 -20 -24 -32 -28 -90 -32 l-66 -4 0 102 0 102 66
-4 c58 -4 70 -8 90 -32z"/>
</g>
</svg>
